<svg width="90" height="53" viewBox="0 0 90 53" fill="none" xmlns="http://www.w3.org/2000/svg">
<path d="M35.0687 42.6307C32.0896 44.4044 28.3785 44.4044 25.3995 42.6307L16.4608 37.3087C13.5987 35.6046 11.8451 32.5197 11.8451 29.1887L11.8451 17.976C11.8451 14.645 13.5987 11.5601 16.4608 9.85601L25.3995 4.534C28.3785 2.7603 32.0896 2.7603 35.0687 4.534L44.0073 9.85601C46.8694 11.5601 48.623 14.6451 48.623 17.976L48.623 29.1887C48.623 32.5197 46.8694 35.6046 44.0073 37.3087L35.0687 42.6307Z" fill="#EC6D42" stroke="white" stroke-width="2.1931"/>
<path d="M63.1925 42.6295C60.2139 44.403 56.5033 44.403 53.5247 42.6296L44.586 37.3075C41.7244 35.6037 39.971 32.5192 39.971 29.1887L39.971 17.976C39.971 14.6455 41.7244 11.561 44.586 9.85719L53.5247 4.53517C56.5033 2.76173 60.2139 2.76173 63.1925 4.53517L72.1312 9.85718C74.9928 11.561 76.7462 14.6455 76.7462 17.976L76.7462 29.1887C76.7462 32.5192 74.9928 35.6037 72.1312 37.3075L63.1925 42.6295Z" fill="#405DE6" stroke="white" stroke-width="2.19583"/>
<path fill-rule="evenodd" clip-rule="evenodd" d="M77.896 18.8349C77.6721 20.4301 12.2324 32.0349 11.5233 32.3803C10.8143 32.7257 10.0529 28.2469 10.6798 28.2468C11.3067 28.2466 76.3593 15.1309 77.0524 14.7013C77.7455 14.2718 78.1199 17.2397 77.896 18.8349Z" fill="#FAFAFA"/>
</svg>
